<svg width="668" height="188" viewBox="0 0 668 188" fill="none" xmlns="http://www.w3.org/2000/svg">
<path d="M0 187.32C8.23433 173.089 12.557 156.932 12.5298 140.49C12.5556 124.048 8.23301 107.892 0 93.6599V93.6599C8.23433 79.4284 12.557 63.272 12.5298 46.8301C12.5556 30.3883 8.23301 14.232 0 0H57.6699C65.906 14.2312 70.2323 30.3874 70.21 46.8301C70.2325 63.2714 65.9096 79.4266 57.6797 93.6599V93.6599C65.9157 107.891 70.242 124.047 70.2197 140.49C70.2422 156.931 65.9199 173.087 57.6899 187.32H0Z" fill="black"/>
<path d="M117.08 187.32C117.129 153.372 105.779 120.389 84.8496 93.6599V93.6599C105.781 66.9314 117.131 33.9488 117.08 0H187.319C187.374 33.9478 176.028 66.9305 155.1 93.6599C176.027 120.39 187.372 153.373 187.319 187.32H117.08Z" fill="#612DE0"/>
<path d="M277.44 35.1199V80.97C283.287 71.6966 291.677 67.0601 302.61 67.0601C307.528 66.942 312.41 67.9303 316.895 69.9519C321.379 71.9735 325.352 74.9768 328.521 78.74C335.307 86.52 338.704 97.0334 338.71 110.28C338.71 122.213 335.481 132.37 329.021 140.75C322.561 149.13 313.811 153.327 302.771 153.34C291.731 153.34 283.287 148.647 277.44 139.26V152.18H257.57V35.0999L277.44 35.1199ZM298.3 136.3C304.04 136.3 308.844 133.927 312.71 129.18C316.577 124.433 318.507 118.253 318.5 110.64C318.5 102.247 316.544 95.7033 312.63 91.01C310.914 88.81 308.714 87.0344 306.202 85.8206C303.689 84.6067 300.931 83.9872 298.141 84.01C292.734 84.01 287.93 86.1366 283.73 90.3899C279.53 94.6432 277.434 101.02 277.44 109.52C277.44 118.24 279.44 124.89 283.44 129.47C285.248 131.648 287.522 133.392 290.094 134.574C292.666 135.757 295.47 136.346 298.3 136.3V136.3Z" fill="black"/>
<path d="M391.391 153.52C378.724 153.52 368.817 149.547 361.671 141.6C354.524 133.653 350.964 123.497 350.99 111.13C350.99 98.3299 354.687 87.7599 362.081 79.4199C369.474 71.0799 379.244 66.9133 391.391 66.9199C404.311 66.9199 414.311 70.9768 421.391 79.0901C428.471 87.2034 432.001 97.4966 431.981 109.97C431.981 122.637 428.42 133.07 421.3 141.27C414.18 149.47 404.211 153.553 391.391 153.52ZM391.391 83.1499C388.502 83.0416 385.636 83.7055 383.09 85.073C380.543 86.4405 378.406 88.4621 376.901 90.9299C373.527 96.1166 371.861 102.63 371.901 110.47C371.901 118.203 373.614 124.66 377.041 129.84C378.567 132.307 380.719 134.328 383.277 135.696C385.836 137.064 388.711 137.731 391.611 137.63C398.117 137.63 403.031 135.09 406.351 130.01C409.671 124.93 411.337 118.473 411.351 110.64C411.351 102.58 409.75 95.9832 406.55 90.8499C403.35 85.7165 398.297 83.1499 391.391 83.1499V83.1499Z" fill="black"/>
<path d="M496.24 70.8899V88.4399C490.72 85.1066 483.82 83.4399 475.54 83.4399C472.12 83.4399 469.453 84.1833 467.54 85.6699C466.63 86.3174 465.89 87.1763 465.385 88.1726C464.88 89.1689 464.624 90.2729 464.64 91.3899C464.634 92.2348 464.776 93.0741 465.06 93.8699C465.382 94.7166 465.888 95.4815 466.54 96.1099C467.26 96.8199 467.95 97.46 468.62 98.01C469.489 98.6932 470.431 99.2769 471.43 99.75L474.58 101.32C475.46 101.76 476.67 102.32 478.22 102.98C479.77 103.64 480.98 104.19 481.86 104.63C487.01 107.018 491.715 110.268 495.77 114.24C499.19 117.773 500.903 122.353 500.91 127.98C500.91 135.82 498.093 141.947 492.46 146.36C486.827 150.773 479.32 152.983 469.94 152.99C459.56 152.99 451.17 151.277 444.77 147.85V129.64C451.828 134.503 460.199 137.102 468.77 137.09C472.41 137.09 475.253 136.4 477.3 135.02C478.263 134.417 479.051 133.573 479.588 132.571C480.125 131.57 480.391 130.446 480.36 129.31C480.376 127.948 480.031 126.605 479.36 125.42C478.398 123.983 477.087 122.813 475.55 122.02C473.67 120.92 472.207 120.12 471.16 119.62C470.113 119.12 468.043 118.21 464.95 116.89C464.69 116.813 464.441 116.702 464.21 116.56C463.974 116.42 463.722 116.31 463.46 116.23C463.176 116.136 462.898 116.023 462.63 115.89C450.383 110.377 444.257 102.43 444.25 92.05C444.25 84.3167 447.176 78.2434 453.03 73.8301C458.883 69.4167 466.216 67.21 475.03 67.21C483.536 67.2366 490.606 68.4632 496.24 70.8899Z" fill="black"/>
<path d="M626.92 153.52C614.253 153.52 604.343 149.547 597.19 141.6C590.036 133.653 586.48 123.497 586.52 111.13C586.52 98.3299 590.216 87.7599 597.61 79.4199C605.003 71.0799 614.773 66.9133 626.92 66.9199C639.84 66.9199 649.84 70.9768 656.92 79.0901C664 87.2034 667.533 97.4966 667.52 109.97C667.52 122.637 663.96 133.07 656.84 141.27C649.72 149.47 639.746 153.553 626.92 153.52ZM626.92 83.1499C624.031 83.0416 621.165 83.7055 618.618 85.073C616.072 86.4405 613.935 88.4621 612.43 90.9299C609.056 96.1166 607.373 102.63 607.38 110.47C607.38 118.203 609.09 124.66 612.51 129.84C614.037 132.309 616.19 134.33 618.751 135.698C621.311 137.066 624.188 137.733 627.09 137.63C633.603 137.63 638.513 135.09 641.82 130.01C645.126 124.93 646.793 118.473 646.82 110.64C646.82 102.58 645.22 95.9832 642.02 90.8499C638.82 85.7165 633.786 83.1499 626.92 83.1499V83.1499Z" fill="black"/>
<path d="M533.03 152.2H513.16V35.1199H533.03V109.48L563.33 68.0801H586.52L555.05 110.14L586.52 152.2H563.33L533.03 110.8V152.2Z" fill="black"/>
</svg>
